<mxfile host="Electron" agent="Mozilla/5.0 (X11; Linux x86_64) AppleWebKit/537.36 (KHTML, like Gecko) draw.io/25.0.2 Chrome/128.0.6613.186 Electron/32.2.5 Safari/537.36" version="25.0.2">
  <diagram name="Page-1" id="zcF58tGHwbvzzmfdJ8KH">
    <mxGraphModel dx="950" dy="607" grid="1" gridSize="10" guides="1" tooltips="1" connect="1" arrows="1" fold="1" page="1" pageScale="1" pageWidth="850" pageHeight="1100" math="0" shadow="0">
      <root>
        <mxCell id="0" />
        <mxCell id="1" parent="0" />
        <mxCell id="8UWVb5Gf4-YHy9oin2Xy-1" value="r" style="rounded=0;whiteSpace=wrap;html=1;" vertex="1" parent="1">
          <mxGeometry x="80" y="320" width="40" height="40" as="geometry" />
        </mxCell>
        <mxCell id="8UWVb5Gf4-YHy9oin2Xy-2" value="" style="rounded=0;whiteSpace=wrap;html=1;" vertex="1" parent="1">
          <mxGeometry x="140" y="320" width="40" height="40" as="geometry" />
        </mxCell>
        <mxCell id="8UWVb5Gf4-YHy9oin2Xy-3" value="" style="rounded=0;whiteSpace=wrap;html=1;" vertex="1" parent="1">
          <mxGeometry x="200" y="320" width="40" height="40" as="geometry" />
        </mxCell>
        <mxCell id="8UWVb5Gf4-YHy9oin2Xy-4" value="" style="rounded=0;whiteSpace=wrap;html=1;" vertex="1" parent="1">
          <mxGeometry x="260" y="320" width="40" height="40" as="geometry" />
        </mxCell>
        <mxCell id="8UWVb5Gf4-YHy9oin2Xy-5" value="d" style="rounded=0;whiteSpace=wrap;html=1;" vertex="1" parent="1">
          <mxGeometry x="320" y="320" width="40" height="40" as="geometry" />
        </mxCell>
        <mxCell id="8UWVb5Gf4-YHy9oin2Xy-6" value="e" style="rounded=0;whiteSpace=wrap;html=1;" vertex="1" parent="1">
          <mxGeometry x="380" y="320" width="40" height="40" as="geometry" />
        </mxCell>
        <mxCell id="8UWVb5Gf4-YHy9oin2Xy-7" value="s" style="rounded=0;whiteSpace=wrap;html=1;" vertex="1" parent="1">
          <mxGeometry x="440" y="320" width="40" height="40" as="geometry" />
        </mxCell>
        <mxCell id="8UWVb5Gf4-YHy9oin2Xy-8" value="size&lt;br&gt;(ULEB128)" style="text;html=1;align=center;verticalAlign=middle;resizable=0;points=[];autosize=1;strokeColor=none;fillColor=none;" vertex="1" parent="1">
          <mxGeometry x="120" y="275" width="80" height="40" as="geometry" />
        </mxCell>
        <mxCell id="8UWVb5Gf4-YHy9oin2Xy-9" value="begin" style="text;html=1;align=center;verticalAlign=middle;resizable=0;points=[];autosize=1;strokeColor=none;fillColor=none;" vertex="1" parent="1">
          <mxGeometry x="75" y="280" width="50" height="30" as="geometry" />
        </mxCell>
        <mxCell id="8UWVb5Gf4-YHy9oin2Xy-10" value="c" style="rounded=0;whiteSpace=wrap;html=1;" vertex="1" parent="1">
          <mxGeometry x="500" y="320" width="40" height="40" as="geometry" />
        </mxCell>
        <mxCell id="8UWVb5Gf4-YHy9oin2Xy-11" value="r" style="rounded=0;whiteSpace=wrap;html=1;" vertex="1" parent="1">
          <mxGeometry x="560" y="320" width="40" height="40" as="geometry" />
        </mxCell>
        <mxCell id="8UWVb5Gf4-YHy9oin2Xy-12" value="i" style="rounded=0;whiteSpace=wrap;html=1;" vertex="1" parent="1">
          <mxGeometry x="620" y="320" width="40" height="40" as="geometry" />
        </mxCell>
        <mxCell id="8UWVb5Gf4-YHy9oin2Xy-13" value="p" style="rounded=0;whiteSpace=wrap;html=1;" vertex="1" parent="1">
          <mxGeometry x="680" y="320" width="40" height="40" as="geometry" />
        </mxCell>
        <mxCell id="8UWVb5Gf4-YHy9oin2Xy-14" value="t" style="rounded=0;whiteSpace=wrap;html=1;" vertex="1" parent="1">
          <mxGeometry x="740" y="320" width="40" height="40" as="geometry" />
        </mxCell>
        <mxCell id="8UWVb5Gf4-YHy9oin2Xy-15" value="i" style="rounded=0;whiteSpace=wrap;html=1;" vertex="1" parent="1">
          <mxGeometry x="800" y="320" width="40" height="40" as="geometry" />
        </mxCell>
        <mxCell id="8UWVb5Gf4-YHy9oin2Xy-16" value="o" style="rounded=0;whiteSpace=wrap;html=1;" vertex="1" parent="1">
          <mxGeometry x="860" y="320" width="40" height="40" as="geometry" />
        </mxCell>
        <mxCell id="8UWVb5Gf4-YHy9oin2Xy-17" value="n" style="rounded=0;whiteSpace=wrap;html=1;" vertex="1" parent="1">
          <mxGeometry x="920" y="320" width="40" height="40" as="geometry" />
        </mxCell>
        <mxCell id="8UWVb5Gf4-YHy9oin2Xy-20" value="" style="rounded=0;whiteSpace=wrap;html=1;" vertex="1" parent="1">
          <mxGeometry x="980" y="320" width="40" height="40" as="geometry" />
        </mxCell>
        <mxCell id="8UWVb5Gf4-YHy9oin2Xy-21" value="" style="rounded=0;whiteSpace=wrap;html=1;" vertex="1" parent="1">
          <mxGeometry x="1040" y="320" width="40" height="40" as="geometry" />
        </mxCell>
        <mxCell id="8UWVb5Gf4-YHy9oin2Xy-22" value="" style="shape=curlyBracket;whiteSpace=wrap;html=1;rounded=1;flipH=1;labelPosition=right;verticalLabelPosition=middle;align=left;verticalAlign=middle;rotation=90;" vertex="1" parent="1">
          <mxGeometry x="628.75" y="48.75" width="20" height="642.5" as="geometry" />
        </mxCell>
        <mxCell id="8UWVb5Gf4-YHy9oin2Xy-23" value="key.size()" style="text;html=1;align=center;verticalAlign=middle;resizable=0;points=[];autosize=1;strokeColor=none;fillColor=none;" vertex="1" parent="1">
          <mxGeometry x="605" y="378" width="70" height="30" as="geometry" />
        </mxCell>
        <mxCell id="8UWVb5Gf4-YHy9oin2Xy-24" value="" style="shape=curlyBracket;whiteSpace=wrap;html=1;rounded=1;flipH=1;labelPosition=right;verticalLabelPosition=middle;align=left;verticalAlign=middle;rotation=90;" vertex="1" parent="1">
          <mxGeometry x="240" y="315" width="20" height="110" as="geometry" />
        </mxCell>
        <mxCell id="8UWVb5Gf4-YHy9oin2Xy-25" value="JMP = n" style="text;html=1;align=center;verticalAlign=middle;resizable=0;points=[];autosize=1;strokeColor=none;fillColor=none;" vertex="1" parent="1">
          <mxGeometry x="215" y="378" width="70" height="30" as="geometry" />
        </mxCell>
        <mxCell id="8UWVb5Gf4-YHy9oin2Xy-26" value="" style="shape=curlyBracket;whiteSpace=wrap;html=1;rounded=1;flipH=1;labelPosition=right;verticalLabelPosition=middle;align=left;verticalAlign=middle;rotation=90;" vertex="1" parent="1">
          <mxGeometry x="1020" y="315" width="20" height="110" as="geometry" />
        </mxCell>
        <mxCell id="8UWVb5Gf4-YHy9oin2Xy-27" value="JMP = n" style="text;html=1;align=center;verticalAlign=middle;resizable=0;points=[];autosize=1;strokeColor=none;fillColor=none;" vertex="1" parent="1">
          <mxGeometry x="995" y="378" width="70" height="30" as="geometry" />
        </mxCell>
        <mxCell id="8UWVb5Gf4-YHy9oin2Xy-28" value="{" style="rounded=0;whiteSpace=wrap;html=1;" vertex="1" parent="1">
          <mxGeometry x="1100" y="320" width="40" height="40" as="geometry" />
        </mxCell>
        <mxCell id="8UWVb5Gf4-YHy9oin2Xy-29" value="" style="rounded=0;whiteSpace=wrap;html=1;" vertex="1" parent="1">
          <mxGeometry x="1160" y="320" width="40" height="40" as="geometry" />
        </mxCell>
        <mxCell id="8UWVb5Gf4-YHy9oin2Xy-30" value="}" style="rounded=0;whiteSpace=wrap;html=1;" vertex="1" parent="1">
          <mxGeometry x="1255" y="320" width="40" height="40" as="geometry" />
        </mxCell>
        <mxCell id="8UWVb5Gf4-YHy9oin2Xy-31" value="..." style="text;html=1;align=center;verticalAlign=middle;resizable=0;points=[];autosize=1;strokeColor=none;fillColor=none;" vertex="1" parent="1">
          <mxGeometry x="1210" y="325" width="30" height="30" as="geometry" />
        </mxCell>
        <mxCell id="8UWVb5Gf4-YHy9oin2Xy-32" value="" style="shape=curlyBracket;whiteSpace=wrap;html=1;rounded=1;labelPosition=left;verticalLabelPosition=middle;align=right;verticalAlign=middle;rotation=90;" vertex="1" parent="1">
          <mxGeometry x="736.25" y="-253.75" width="20" height="1097.5" as="geometry" />
        </mxCell>
        <mxCell id="8UWVb5Gf4-YHy9oin2Xy-33" value="size" style="text;html=1;align=center;verticalAlign=middle;resizable=0;points=[];autosize=1;strokeColor=none;fillColor=none;" vertex="1" parent="1">
          <mxGeometry x="732.5" y="250" width="40" height="30" as="geometry" />
        </mxCell>
        <mxCell id="8UWVb5Gf4-YHy9oin2Xy-34" style="edgeStyle=orthogonalEdgeStyle;rounded=0;orthogonalLoop=1;jettySize=auto;html=1;entryX=0.459;entryY=0.001;entryDx=0;entryDy=0;entryPerimeter=0;dashed=1;" edge="1" parent="1" source="8UWVb5Gf4-YHy9oin2Xy-8" target="8UWVb5Gf4-YHy9oin2Xy-33">
          <mxGeometry relative="1" as="geometry">
            <Array as="points">
              <mxPoint x="160" y="230" />
              <mxPoint x="751" y="230" />
            </Array>
          </mxGeometry>
        </mxCell>
        <mxCell id="8UWVb5Gf4-YHy9oin2Xy-35" value="n = 2 (default)&lt;div&gt;increases with ULEB128&lt;/div&gt;" style="text;html=1;align=left;verticalAlign=middle;resizable=0;points=[];autosize=1;strokeColor=none;fillColor=none;" vertex="1" parent="1">
          <mxGeometry x="230" y="408" width="150" height="40" as="geometry" />
        </mxCell>
      </root>
    </mxGraphModel>
  </diagram>
</mxfile>
